<mxfile>
    <diagram id="x28gWw-vFMMnM6PrvLHF" name="Page-1">
        <mxGraphModel dx="1336" dy="539" grid="1" gridSize="10" guides="1" tooltips="1" connect="1" arrows="1" fold="1" page="1" pageScale="1" pageWidth="850" pageHeight="1100" math="1" shadow="0">
            <root>
                <mxCell id="0"/>
                <mxCell id="1" parent="0"/>
                <mxCell id="UfHWgThy5PjR0i4prVAl-19" value="Análisis" style="shape=table;html=1;whiteSpace=wrap;startSize=30;container=1;collapsible=0;childLayout=tableLayout;fillColor=#f5f5f5;strokeColor=#666666;fontColor=#333333;" parent="1" vertex="1">
                    <mxGeometry x="-440" y="20" width="420" height="220" as="geometry"/>
                </mxCell>
                <mxCell id="UfHWgThy5PjR0i4prVAl-20" value="" style="shape=partialRectangle;html=1;whiteSpace=wrap;collapsible=0;dropTarget=0;pointerEvents=0;fillColor=none;top=0;left=0;bottom=0;right=0;points=[[0,0.5],[1,0.5]];portConstraint=eastwest;" parent="UfHWgThy5PjR0i4prVAl-19" vertex="1">
                    <mxGeometry y="30" width="420" height="30" as="geometry"/>
                </mxCell>
                <mxCell id="UfHWgThy5PjR0i4prVAl-21" value="Entradas" style="shape=partialRectangle;html=1;whiteSpace=wrap;connectable=0;overflow=hidden;fillColor=#d5e8d4;top=0;left=0;bottom=0;right=0;strokeColor=#82b366;" parent="UfHWgThy5PjR0i4prVAl-20" vertex="1">
                    <mxGeometry width="117" height="30" as="geometry"/>
                </mxCell>
                <mxCell id="UfHWgThy5PjR0i4prVAl-22" value="Proceso" style="shape=partialRectangle;html=1;whiteSpace=wrap;connectable=0;overflow=hidden;fillColor=#ffe6cc;top=0;left=0;bottom=0;right=0;strokeColor=#d79b00;" parent="UfHWgThy5PjR0i4prVAl-20" vertex="1">
                    <mxGeometry x="117" width="173" height="30" as="geometry"/>
                </mxCell>
                <mxCell id="UfHWgThy5PjR0i4prVAl-23" value="Salidas" style="shape=partialRectangle;html=1;whiteSpace=wrap;connectable=0;overflow=hidden;fillColor=#dae8fc;top=0;left=0;bottom=0;right=0;strokeColor=#6c8ebf;" parent="UfHWgThy5PjR0i4prVAl-20" vertex="1">
                    <mxGeometry x="290" width="130" height="30" as="geometry"/>
                </mxCell>
                <mxCell id="UfHWgThy5PjR0i4prVAl-24" value="" style="shape=partialRectangle;html=1;whiteSpace=wrap;collapsible=0;dropTarget=0;pointerEvents=0;fillColor=none;top=0;left=0;bottom=0;right=0;points=[[0,0.5],[1,0.5]];portConstraint=eastwest;" parent="UfHWgThy5PjR0i4prVAl-19" vertex="1">
                    <mxGeometry y="60" width="420" height="160" as="geometry"/>
                </mxCell>
                <mxCell id="UfHWgThy5PjR0i4prVAl-25" value="horas,&lt;br&gt;minutos,&lt;br&gt;segundos&lt;br&gt;(originales)" style="shape=partialRectangle;html=1;whiteSpace=wrap;connectable=0;overflow=hidden;fillColor=#d5e8d4;top=0;left=0;bottom=0;right=0;strokeColor=#82b366;" parent="UfHWgThy5PjR0i4prVAl-24" vertex="1">
                    <mxGeometry width="117" height="160" as="geometry"/>
                </mxCell>
                <mxCell id="UfHWgThy5PjR0i4prVAl-26" value="Sumar 1 a segundos&lt;br&gt;Si segundos se pasa de 59,&lt;br&gt;&amp;nbsp; &amp;nbsp;regresar segundos a 0 y&lt;br&gt;&amp;nbsp; &amp;nbsp;sumar 1 a minutos.&lt;br&gt;Si minutos se pasa de 59,&lt;br&gt;&amp;nbsp; &amp;nbsp;regresar segundos a 0 y&lt;br&gt;&amp;nbsp; &amp;nbsp;sumar 1 a horas.&lt;br&gt;Si horas se pasa de 23,&lt;br&gt;&amp;nbsp; &amp;nbsp;regresar horas a 0." style="shape=partialRectangle;html=1;whiteSpace=wrap;connectable=0;overflow=hidden;fillColor=#ffe6cc;top=0;left=0;bottom=0;right=0;align=left;strokeColor=#d79b00;" parent="UfHWgThy5PjR0i4prVAl-24" vertex="1">
                    <mxGeometry x="117" width="173" height="160" as="geometry"/>
                </mxCell>
                <mxCell id="UfHWgThy5PjR0i4prVAl-27" value="horas,&lt;br&gt;minutos,&lt;br&gt;segundos&lt;br&gt;(un segundo después)" style="shape=partialRectangle;html=1;whiteSpace=wrap;connectable=0;overflow=hidden;fillColor=#dae8fc;top=0;left=0;bottom=0;right=0;strokeColor=#6c8ebf;" parent="UfHWgThy5PjR0i4prVAl-24" vertex="1">
                    <mxGeometry x="290" width="130" height="160" as="geometry"/>
                </mxCell>
                <mxCell id="UfHWgThy5PjR0i4prVAl-36" value="" style="edgeStyle=orthogonalEdgeStyle;rounded=0;orthogonalLoop=1;jettySize=auto;html=1;" parent="1" source="UfHWgThy5PjR0i4prVAl-34" target="UfHWgThy5PjR0i4prVAl-35" edge="1">
                    <mxGeometry relative="1" as="geometry"/>
                </mxCell>
                <mxCell id="UfHWgThy5PjR0i4prVAl-34" value="Inicio" style="ellipse;whiteSpace=wrap;html=1;fillColor=#f8cecc;strokeColor=#b85450;" parent="1" vertex="1">
                    <mxGeometry x="40" y="20" width="120" height="40" as="geometry"/>
                </mxCell>
                <mxCell id="UfHWgThy5PjR0i4prVAl-38" value="" style="edgeStyle=orthogonalEdgeStyle;rounded=0;orthogonalLoop=1;jettySize=auto;html=1;" parent="1" source="UfHWgThy5PjR0i4prVAl-35" target="UfHWgThy5PjR0i4prVAl-37" edge="1">
                    <mxGeometry relative="1" as="geometry"/>
                </mxCell>
                <mxCell id="UfHWgThy5PjR0i4prVAl-35" value="horas,&lt;br&gt;minutos,&lt;br&gt;segundos" style="shape=parallelogram;perimeter=parallelogramPerimeter;whiteSpace=wrap;html=1;fixedSize=1;fillColor=#d5e8d4;strokeColor=#82b366;" parent="1" vertex="1">
                    <mxGeometry x="40" y="80" width="120" height="60" as="geometry"/>
                </mxCell>
                <mxCell id="3" value="" style="edgeStyle=orthogonalEdgeStyle;rounded=0;orthogonalLoop=1;jettySize=auto;html=1;" edge="1" parent="1" source="UfHWgThy5PjR0i4prVAl-37" target="2">
                    <mxGeometry relative="1" as="geometry"/>
                </mxCell>
                <mxCell id="UfHWgThy5PjR0i4prVAl-37" value="segundos `larr` segundos + 1" style="whiteSpace=wrap;html=1;fillColor=#fff2cc;strokeColor=#d6b656;" parent="1" vertex="1">
                    <mxGeometry x="20" y="160" width="160" height="60" as="geometry"/>
                </mxCell>
                <mxCell id="UfHWgThy5PjR0i4prVAl-42" value="" style="edgeStyle=orthogonalEdgeStyle;rounded=0;orthogonalLoop=1;jettySize=auto;html=1;" parent="1" source="UfHWgThy5PjR0i4prVAl-39" target="UfHWgThy5PjR0i4prVAl-41" edge="1">
                    <mxGeometry relative="1" as="geometry"/>
                </mxCell>
                <mxCell id="UfHWgThy5PjR0i4prVAl-39" value="horas,&lt;br&gt;minutos,&lt;br&gt;segundos" style="shape=parallelogram;perimeter=parallelogramPerimeter;whiteSpace=wrap;html=1;fixedSize=1;fillColor=#dae8fc;strokeColor=#6c8ebf;" parent="1" vertex="1">
                    <mxGeometry x="40" y="700" width="120" height="60" as="geometry"/>
                </mxCell>
                <mxCell id="UfHWgThy5PjR0i4prVAl-41" value="Fin" style="ellipse;whiteSpace=wrap;html=1;fillColor=#f8cecc;strokeColor=#b85450;" parent="1" vertex="1">
                    <mxGeometry x="40" y="780" width="120" height="40" as="geometry"/>
                </mxCell>
                <mxCell id="5" value="Sí" style="edgeStyle=orthogonalEdgeStyle;rounded=0;orthogonalLoop=1;jettySize=auto;html=1;" edge="1" parent="1" source="2" target="4">
                    <mxGeometry relative="1" as="geometry"/>
                </mxCell>
                <mxCell id="20" value="No" style="edgeStyle=orthogonalEdgeStyle;rounded=0;orthogonalLoop=1;jettySize=auto;html=1;exitX=0.5;exitY=1;exitDx=0;exitDy=0;entryX=0.5;entryY=0;entryDx=0;entryDy=0;" edge="1" parent="1" source="2" target="UfHWgThy5PjR0i4prVAl-39">
                    <mxGeometry x="-0.8696" relative="1" as="geometry">
                        <mxPoint as="offset"/>
                    </mxGeometry>
                </mxCell>
                <mxCell id="2" value="segundos &amp;gt; 59" style="rhombus;whiteSpace=wrap;html=1;fillColor=#e1d5e7;strokeColor=#9673a6;" vertex="1" parent="1">
                    <mxGeometry x="50" y="240" width="100" height="80" as="geometry"/>
                </mxCell>
                <mxCell id="7" value="" style="edgeStyle=orthogonalEdgeStyle;rounded=0;orthogonalLoop=1;jettySize=auto;html=1;" edge="1" parent="1" source="4" target="6">
                    <mxGeometry relative="1" as="geometry"/>
                </mxCell>
                <mxCell id="4" value="segundos `larr` 0" style="whiteSpace=wrap;html=1;fillColor=#fff2cc;strokeColor=#d6b656;" vertex="1" parent="1">
                    <mxGeometry x="220" y="250" width="120" height="60" as="geometry"/>
                </mxCell>
                <mxCell id="9" value="" style="edgeStyle=orthogonalEdgeStyle;rounded=0;orthogonalLoop=1;jettySize=auto;html=1;" edge="1" parent="1" source="6" target="8">
                    <mxGeometry relative="1" as="geometry"/>
                </mxCell>
                <mxCell id="6" value="minutos `larr` minutos + 1" style="whiteSpace=wrap;html=1;fillColor=#fff2cc;strokeColor=#d6b656;" vertex="1" parent="1">
                    <mxGeometry x="210" y="330" width="140" height="60" as="geometry"/>
                </mxCell>
                <mxCell id="11" value="Sí" style="edgeStyle=orthogonalEdgeStyle;rounded=0;orthogonalLoop=1;jettySize=auto;html=1;" edge="1" parent="1" source="8" target="10">
                    <mxGeometry relative="1" as="geometry"/>
                </mxCell>
                <mxCell id="19" value="No" style="edgeStyle=orthogonalEdgeStyle;rounded=0;orthogonalLoop=1;jettySize=auto;html=1;exitX=0;exitY=0.5;exitDx=0;exitDy=0;" edge="1" parent="1" source="8">
                    <mxGeometry relative="1" as="geometry">
                        <mxPoint x="100" y="450" as="targetPoint"/>
                    </mxGeometry>
                </mxCell>
                <mxCell id="8" value="minutos &amp;gt; 59" style="rhombus;whiteSpace=wrap;html=1;fillColor=#e1d5e7;strokeColor=#9673a6;" vertex="1" parent="1">
                    <mxGeometry x="230" y="410" width="100" height="80" as="geometry"/>
                </mxCell>
                <mxCell id="13" value="" style="edgeStyle=orthogonalEdgeStyle;rounded=0;orthogonalLoop=1;jettySize=auto;html=1;" edge="1" parent="1" source="10" target="12">
                    <mxGeometry relative="1" as="geometry"/>
                </mxCell>
                <mxCell id="10" value="minutos `larr` 0" style="whiteSpace=wrap;html=1;fillColor=#fff2cc;strokeColor=#d6b656;" vertex="1" parent="1">
                    <mxGeometry x="400" y="420" width="120" height="60" as="geometry"/>
                </mxCell>
                <mxCell id="15" value="" style="edgeStyle=orthogonalEdgeStyle;rounded=0;orthogonalLoop=1;jettySize=auto;html=1;" edge="1" parent="1" source="12" target="14">
                    <mxGeometry relative="1" as="geometry"/>
                </mxCell>
                <mxCell id="12" value="horas = horas + 1" style="whiteSpace=wrap;html=1;fillColor=#fff2cc;strokeColor=#d6b656;" vertex="1" parent="1">
                    <mxGeometry x="400" y="500" width="120" height="60" as="geometry"/>
                </mxCell>
                <mxCell id="17" value="Sí" style="edgeStyle=orthogonalEdgeStyle;rounded=0;orthogonalLoop=1;jettySize=auto;html=1;" edge="1" parent="1" source="14" target="16">
                    <mxGeometry relative="1" as="geometry"/>
                </mxCell>
                <mxCell id="18" value="No" style="edgeStyle=orthogonalEdgeStyle;rounded=0;orthogonalLoop=1;jettySize=auto;html=1;exitX=0;exitY=0.5;exitDx=0;exitDy=0;" edge="1" parent="1" source="14">
                    <mxGeometry relative="1" as="geometry">
                        <mxPoint x="100" y="620" as="targetPoint"/>
                    </mxGeometry>
                </mxCell>
                <mxCell id="14" value="horas &amp;gt; 23" style="rhombus;whiteSpace=wrap;html=1;fillColor=#e1d5e7;strokeColor=#9673a6;" vertex="1" parent="1">
                    <mxGeometry x="410" y="580" width="100" height="80" as="geometry"/>
                </mxCell>
                <mxCell id="22" style="edgeStyle=orthogonalEdgeStyle;rounded=0;orthogonalLoop=1;jettySize=auto;html=1;exitX=0.5;exitY=1;exitDx=0;exitDy=0;" edge="1" parent="1" source="16">
                    <mxGeometry relative="1" as="geometry">
                        <mxPoint x="100" y="680" as="targetPoint"/>
                        <Array as="points">
                            <mxPoint x="640" y="680"/>
                        </Array>
                    </mxGeometry>
                </mxCell>
                <mxCell id="16" value="horas `larr` 0" style="whiteSpace=wrap;html=1;fillColor=#fff2cc;strokeColor=#d6b656;" vertex="1" parent="1">
                    <mxGeometry x="580" y="590" width="120" height="60" as="geometry"/>
                </mxCell>
            </root>
        </mxGraphModel>
    </diagram>
</mxfile>